<svg width="100" height="100" viewBox="0 0 100 100" fill="none" xmlns="http://www.w3.org/2000/svg">
<path fill-rule="evenodd" clip-rule="evenodd" d="M20.4549 20.8182V79.9091H79.5458V20.8182H20.4549ZM18.1822 14C15.6718 14 13.6367 16.0351 13.6367 18.5455V82.1818C13.6367 84.6922 15.6718 86.7273 18.1822 86.7273H81.8185C84.3289 86.7273 86.364 84.6922 86.364 82.1818V18.5455C86.364 16.0351 84.3289 14 81.8185 14H18.1822Z" fill="white"/>
<path fill-rule="evenodd" clip-rule="evenodd" d="M86.3631 41.2733V59.4551H93.1813V41.2733H86.3631ZM84.0904 34.4551C81.58 34.4551 79.5449 36.4901 79.5449 39.0005V61.7278C79.5449 64.2382 81.58 66.2733 84.0904 66.2733H95.454C97.9644 66.2733 99.9995 64.2382 99.9995 61.7278V39.0005C99.9995 36.4901 97.9644 34.4551 95.454 34.4551H84.0904Z" fill="white"/>
<path fill-rule="evenodd" clip-rule="evenodd" d="M6.81818 41.2733V59.4551H13.6364V41.2733H6.81818ZM4.54545 34.4551C2.03507 34.4551 0 36.4901 0 39.0005V61.7278C0 64.2382 2.03507 66.2733 4.54545 66.2733H15.9091C18.4195 66.2733 20.4545 64.2382 20.4545 61.7278V39.0005C20.4545 36.4901 18.4195 34.4551 15.9091 34.4551H4.54545Z" fill="white"/>
<path d="M31.8184 42.4084C31.8184 39.2704 34.3622 36.7266 37.5002 36.7266V36.7266C40.6382 36.7266 43.182 39.2704 43.182 42.4084V42.4084C43.182 45.5464 40.6382 48.0902 37.5002 48.0902V48.0902C34.3622 48.0902 31.8184 45.5464 31.8184 42.4084V42.4084Z" fill="white"/>
<path d="M56.8184 42.4084C56.8184 39.2704 59.3622 36.7266 62.5002 36.7266V36.7266C65.6382 36.7266 68.182 39.2704 68.182 42.4084V42.4084C68.182 45.5464 65.6382 48.0902 62.5002 48.0902V48.0902C59.3622 48.0902 56.8184 45.5464 56.8184 42.4084V42.4084Z" fill="white"/>
<path fill-rule="evenodd" clip-rule="evenodd" d="M36.3633 54.9082C36.3633 62.4411 42.469 68.5446 49.9996 68.5446C57.5303 68.5446 63.636 62.4411 63.636 54.9082H36.3633Z" fill="white"/>
</svg>
